<svg xmlns="http://www.w3.org/2000/svg" width="26.307" height="19.018" viewBox="0 0 26.307 19.018">
  <g id="Group_226" data-name="Group 226" transform="translate(-16.818 -32.818)">
    <path id="ico_menu" d="M1505.328,1398.3h23.59a1.359,1.359,0,0,1,1.358,1.361h0a1.359,1.359,0,0,1-1.358,1.358h-23.59a1.359,1.359,0,0,1-1.358-1.358h0A1.359,1.359,0,0,1,1505.328,1398.3Zm0-8.15h23.59a1.359,1.359,0,0,1,1.358,1.361h0a1.359,1.359,0,0,1-1.358,1.358h-23.59a1.359,1.359,0,0,1-1.358-1.358h0A1.359,1.359,0,0,1,1505.328,1390.15Zm0-8.15h23.59a1.359,1.359,0,0,1,1.358,1.361h0a1.359,1.359,0,0,1-1.358,1.358h-23.59a1.359,1.359,0,0,1-1.358-1.358h0A1.359,1.359,0,0,1,1505.328,1382Z" transform="translate(-1487.151 -1349.182)" fill="#fe9604" fill-rule="evenodd"/>
  </g>
</svg>
